<svg xmlns="http://www.w3.org/2000/svg" width="1200" height="610" viewBox="0 0 1200 610"><style>text{font-family:ui-monospace,SFMono-Regular,Menlo,Consolas,monospace}.h{fill:#7ee7ff;font-size:18px;font-weight:700}.t{fill:#c8dbe1;font-size:12px}.m{fill:#597b86;font-size:10px}.ok{fill:#70f0b1}.warn{fill:#ffd166}.box{fill:#07151b;stroke:#245f6e;stroke-width:1.4}.line{stroke:#235663;stroke-width:2}.pulse{fill:#7ee7ff;filter:url(#g)}</style><defs><filter id="g"><feGaussianBlur stdDeviation="3" result="b"/><feMerge><feMergeNode in="b"/><feMergeNode in="SourceGraphic"/></feMerge></filter></defs><rect width="1200" height="610" rx="16" fill="#050b10" stroke="#173d49"/><text x="32" y="40" class="h">CAPABILITY TOPOLOGY // MULTI-RUNTIME BACKEND DELIVERY</text><text x="32" y="68" class="m">RESUME-GROUNDED LAYERS // CLIENT → API → JVM/PYTHON/NODE → STREAM/STATE → CLOUD/OBSERVABILITY</text>
<g transform="translate(35 105)"><rect class="box" x="0" y="0" width="165" height="72" rx="8"/><text x="22" y="28" class="m">CLIENT</text><text x="22" y="52" class="t">REACT / TS / JS</text><rect class="box" x="225" y="0" width="165" height="72" rx="8"/><text x="247" y="28" class="m">INGRESS</text><text x="247" y="52" class="t">REST / GATEWAY</text><rect class="box" x="450" y="0" width="180" height="72" rx="8"/><text x="472" y="28" class="m">PRIMARY CORE</text><text x="472" y="52" class="t">JAVA / SPRING</text><rect class="box" x="690" y="0" width="175" height="72" rx="8"/><text x="712" y="28" class="m">PYTHON API</text><text x="712" y="52" class="t">FASTAPI / FLASK</text><rect class="box" x="925" y="0" width="175" height="72" rx="8"/><text x="947" y="28" class="m">JS SERVICE</text><text x="947" y="52" class="t">NODE / EXPRESS</text><path class="line" d="M165 36H225M390 36H450M630 36H690M865 36H925"/><circle r="5" class="pulse"><animateMotion dur="5.5s" repeatCount="indefinite" path="M165 36H925"/></circle>
<rect class="box" x="225" y="135" width="190" height="72" rx="8"/><text x="247" y="163" class="m">STREAMING</text><text x="247" y="187" class="t">KAFKA / QUEUES</text><rect class="box" x="475" y="135" width="180" height="72" rx="8"/><text x="497" y="163" class="m">HOT STATE</text><text x="497" y="187" class="t">REDIS / CACHE</text><rect class="box" x="715" y="135" width="210" height="72" rx="8"/><text x="737" y="163" class="m">DURABLE DATA</text><text x="737" y="187" class="t">MYSQL / PG / MONGO</text><path d="M540 72V110H320V135M540 110H565V135M540 110H820V135" class="line" fill="none"/><circle r="4" class="pulse"><animateMotion dur="3.4s" repeatCount="indefinite" path="M540 72V110H820V135"/></circle>
<rect class="box" x="0" y="270" width="260" height="88" rx="8"/><text x="22" y="298" class="m">NATIVE / PERFORMANCE</text><text x="22" y="322" class="t">C++ / STL / PARALLEL WORK</text><text x="22" y="344" class="m">plus JNI/CUDA systems experimentation</text><rect class="box" x="315" y="270" width="250" height="88" rx="8"/><text x="337" y="298" class="m">CLOUD / SCALE</text><text x="337" y="322" class="t">AWS / EKS / K8S / PCF</text><text x="337" y="344" class="m">Docker / Jenkins / CI-CD</text><rect class="box" x="620" y="270" width="250" height="88" rx="8"/><text x="642" y="298" class="m">OBSERVABILITY</text><text x="642" y="322" class="t">CLOUDWATCH / SPLUNK</text><text x="642" y="344" class="m">Dynatrace / logs / alerts / RCA</text><rect class="box" x="925" y="270" width="175" height="88" rx="8"/><text x="947" y="298" class="m">QUALITY</text><text x="947" y="322" class="t">JUNIT / TDD</text><text x="947" y="344" class="m">OOP / SOLID / Agile</text></g>
<g transform="translate(35 500)"><text class="warn" x="0" y="0">POSITIONING</text><text class="t" x="105" y="0">Java/JVM owns the profile center of gravity; Python, JS/TS, React and C++ widen delivery range without flattening depth.</text><path class="line" d="M0 28H1130"/><circle r="4" class="pulse"><animateMotion dur="6s" repeatCount="indefinite" path="M0 28H1130"/></circle><text class="m" x="0" y="58">SYSTEM RULE // choose the runtime for the boundary: core correctness, integration velocity, client delivery, or native performance.</text></g><text x="35" y="586" class="m">SOURCE MODEL // SKILLS AND EXPERIENCE MAPPED FROM CURRENT RESUME; THIS DIAGRAM REPRESENTS CAPABILITY LAYERS, NOT ONE CLAIMED SINGLE DEPLOYMENT TOPOLOGY</text></svg>