<svg xmlns="http://www.w3.org/2000/svg" width="1200" height="640" viewBox="0 0 1200 640" role="img" aria-labelledby="t d">
<title id="t">BackendArchitectX — Quantum Linux Engineering Interface</title>
<desc id="d">Animated holographic Linux engineering dashboard with production metrics, code rain, runtime lanes and distributed systems telemetry.</desc>
<defs>
  <linearGradient id="bg" x1="0" y1="0" x2="1" y2="1"><stop offset="0" stop-color="#020306"/><stop offset=".5" stop-color="#070915"/><stop offset="1" stop-color="#010205"/></linearGradient>
  <linearGradient id="foil" x1="0" y1="0" x2="1" y2="0"><stop offset="0" stop-color="#55f7ff"><animate attributeName="stop-color" values="#55f7ff;#8b5cff;#ff4fd8;#72ffb3;#55f7ff" dur="7s" repeatCount="indefinite"/></stop><stop offset=".25" stop-color="#8b5cff"><animate attributeName="stop-color" values="#8b5cff;#ff4fd8;#72ffb3;#55f7ff;#8b5cff" dur="7s" repeatCount="indefinite"/></stop><stop offset=".5" stop-color="#ff4fd8"><animate attributeName="stop-color" values="#ff4fd8;#72ffb3;#55f7ff;#8b5cff;#ff4fd8" dur="7s" repeatCount="indefinite"/></stop><stop offset=".75" stop-color="#72ffb3"><animate attributeName="stop-color" values="#72ffb3;#55f7ff;#8b5cff;#ff4fd8;#72ffb3" dur="7s" repeatCount="indefinite"/></stop><stop offset="1" stop-color="#55f7ff"/></linearGradient>
  <radialGradient id="aurora1"><stop offset="0" stop-color="#00eaff" stop-opacity=".32"/><stop offset="1" stop-color="#00eaff" stop-opacity="0"/></radialGradient>
  <radialGradient id="aurora2"><stop offset="0" stop-color="#8b5cff" stop-opacity=".30"/><stop offset="1" stop-color="#8b5cff" stop-opacity="0"/></radialGradient>
  <radialGradient id="aurora3"><stop offset="0" stop-color="#ff3bbd" stop-opacity=".20"/><stop offset="1" stop-color="#ff3bbd" stop-opacity="0"/></radialGradient>
  <pattern id="grid" width="32" height="32" patternUnits="userSpaceOnUse"><path d="M32 0H0V32" fill="none" stroke="#78f7ff" stroke-opacity=".06"/></pattern>
  <pattern id="scan" width="4" height="4" patternUnits="userSpaceOnUse"><path d="M0 1H4" stroke="#fff" stroke-opacity=".025"/></pattern>
  <filter id="noise" x="-20%" y="-20%" width="140%" height="140%"><feTurbulence type="fractalNoise" baseFrequency=".009 .028" numOctaves="2" seed="8" result="n"><animate attributeName="baseFrequency" values=".009 .028;.015 .021;.009 .028" dur="9s" repeatCount="indefinite"/></feTurbulence><feDisplacementMap in="SourceGraphic" in2="n" scale="18" xChannelSelector="R" yChannelSelector="B"/></filter>
  <filter id="glow" x="-60%" y="-60%" width="220%" height="220%"><feGaussianBlur stdDeviation="5" result="b"/><feMerge><feMergeNode in="b"/><feMergeNode in="SourceGraphic"/></feMerge></filter>
  <filter id="soft"><feGaussianBlur stdDeviation="28"/></filter>
  <clipPath id="glitchA"><rect x="50" y="104" width="610" height="18"><animate attributeName="y" values="104;124;92;104" dur="2.6s" repeatCount="indefinite"/></rect></clipPath>
  <clipPath id="glitchB"><rect x="50" y="126" width="610" height="11"><animate attributeName="y" values="126;112;136;126" dur="3.1s" repeatCount="indefinite"/></rect></clipPath>
</defs>
<rect width="1200" height="640" rx="28" fill="url(#bg)"/>
<ellipse cx="230" cy="120" rx="320" ry="250" fill="url(#aurora1)" filter="url(#soft)"><animate attributeName="cx" values="180;340;180" dur="12s" repeatCount="indefinite"/></ellipse>
<ellipse cx="780" cy="80" rx="390" ry="260" fill="url(#aurora2)" filter="url(#soft)"><animate attributeName="cy" values="60;160;60" dur="15s" repeatCount="indefinite"/></ellipse>
<ellipse cx="1040" cy="360" rx="290" ry="260" fill="url(#aurora3)" filter="url(#soft)"><animate attributeName="cx" values="980;1100;980" dur="11s" repeatCount="indefinite"/></ellipse>
<rect width="1200" height="640" rx="28" fill="url(#grid)"/><rect width="1200" height="640" rx="28" fill="url(#scan)"/><rect x="1.5" y="1.5" width="1197" height="637" rx="26.5" fill="none" stroke="url(#foil)" stroke-width="3" opacity=".8"/>
<g font-family="ui-monospace,SFMono-Regular,Menlo,Consolas,monospace">
<text x="50" y="48" fill="#6dfcff" font-size="12" letter-spacing="3">AXIOM://ROOT  •  SECURE ENGINEERING INTERFACE  •  KERNEL 6.x</text><text x="960" y="48" fill="#72ffb3" font-size="11">● LINK ESTABLISHED</text>
<g opacity=".17" font-size="10" fill="#7bf9ff"><text x="865" y="86">01001010 01010110 01001101</text><text x="865" y="101">0x7f2a  epoll_wait  futex  grpc</text><text x="865" y="116">tcp ESTAB :443  kafka-io-7</text><animateTransform attributeName="transform" type="translate" values="0 0;0 14;0 0" dur="6s" repeatCount="indefinite"/></g>
<text x="50" y="112" fill="#eefcff" font-size="44" font-weight="800" letter-spacing="1">PRANAY KADU</text><text x="52" y="145" fill="#a9bdca" font-size="15" letter-spacing="2.2">BACKEND / DISTRIBUTED SYSTEMS / PERFORMANCE</text><text x="51" y="112" fill="#ff3bbd" opacity=".40" font-size="44" font-weight="800" clip-path="url(#glitchA)">PRANAY KADU</text><text x="49" y="112" fill="#31eaff" opacity=".45" font-size="44" font-weight="800" clip-path="url(#glitchB)">PRANAY KADU</text>
<g transform="translate(50 184)"><rect width="1100" height="126" rx="20" fill="#0a0d17" fill-opacity=".64" stroke="url(#foil)" stroke-opacity=".45"/><path d="M18 18H1082" stroke="#fff" stroke-opacity=".06"/><text x="22" y="31" fill="#778b99" font-size="10" letter-spacing="2">PRODUCTION TELEMETRY</text><g transform="translate(22 48)"><g><text y="14" fill="#758897" font-size="10">SCALE</text><text y="47" fill="#fff" font-size="24" font-weight="700">1M+</text><text x="60" y="47" fill="#8ca3ad" font-size="11">transactions</text></g><g transform="translate(200 0)"><text y="14" fill="#758897" font-size="10">P95</text><text y="47" fill="#72ffb3" font-size="24" font-weight="700">−40%</text></g><g transform="translate(380 0)"><text y="14" fill="#758897" font-size="10">THROUGHPUT</text><text y="47" fill="#72ffb3" font-size="24" font-weight="700">+15%</text></g><g transform="translate(585 0)"><text y="14" fill="#758897" font-size="10">UPTIME</text><text y="47" fill="#55f7ff" font-size="24" font-weight="700">99.8%</text></g><g transform="translate(770 0)"><text y="14" fill="#758897" font-size="10">MTTR</text><text y="47" fill="#fff" font-size="23" font-weight="700">35 → 12m</text></g><path d="M0 66 C45 52 72 73 110 58 S175 42 210 58 S282 72 320 50 S395 36 440 51 S520 76 575 48 S660 41 710 55 S795 67 850 43 S930 55 1015 35" fill="none" stroke="url(#foil)" stroke-width="2" opacity=".85"/><circle r="4" fill="#fff" filter="url(#glow)"><animateMotion dur="5.5s" repeatCount="indefinite" path="M0 66 C45 52 72 73 110 58 S175 42 210 58 S282 72 320 50 S395 36 440 51 S520 76 575 48 S660 41 710 55 S795 67 850 43 S930 55 1015 35"/></circle></g></g>
<g transform="translate(50 332)"><rect width="720" height="244" rx="22" fill="#080b13" fill-opacity=".72" stroke="#69f7ff" stroke-opacity=".22"/><text x="22" y="32" fill="#6dfcff" font-size="11">~/runtime/topology.rs</text><text x="22" y="58" fill="#7f94a0" font-size="10">01</text><text x="52" y="58" fill="#ff66d8">fn</text><text x="71" y="58" fill="#fff"> main</text><text x="107" y="58" fill="#a8b7c1">() {</text><text x="22" y="82" fill="#7f94a0" font-size="10">02</text><text x="52" y="82" fill="#a8b7c1">  route</text><text x="101" y="82" fill="#fff">(</text><text x="111" y="82" fill="#72ffb3">java_spring</text><text x="190" y="82" fill="#fff">)</text><text x="205" y="82" fill="#596d79"> // primary core</text><text x="22" y="106" fill="#7f94a0" font-size="10">03</text><text x="52" y="106" fill="#a8b7c1">  spawn</text><text x="105" y="106" fill="#fff">(</text><text x="115" y="106" fill="#55f7ff">python_fastapi</text><text x="214" y="106" fill="#fff">)</text><text x="22" y="130" fill="#7f94a0" font-size="10">04</text><text x="52" y="130" fill="#a8b7c1">  bridge</text><text x="111" y="130" fill="#fff">(</text><text x="121" y="130" fill="#8b7cff">node_ts_js</text><text x="195" y="130" fill="#fff">)</text><text x="22" y="154" fill="#7f94a0" font-size="10">05</text><text x="52" y="154" fill="#a8b7c1">  native</text><text x="111" y="154" fill="#fff">(</text><text x="121" y="154" fill="#ff66d8">cpp_stl_cuda</text><text x="211" y="154" fill="#fff">)</text><text x="22" y="178" fill="#7f94a0" font-size="10">06</text><text x="52" y="178" fill="#a8b7c1">  stream</text><text x="111" y="178" fill="#fff">(</text><text x="121" y="178" fill="#72ffb3">kafka</text><text x="153" y="178" fill="#fff">, </text><text x="169" y="178" fill="#55f7ff">redis</text><text x="207" y="178" fill="#fff">, sql)</text><text x="22" y="202" fill="#7f94a0" font-size="10">07</text><text x="52" y="202" fill="#a8b7c1">  enforce</text><text x="121" y="202" fill="#fff">(ownership, idempotency, lifecycle)</text><text x="22" y="226" fill="#7f94a0" font-size="10">08</text><text x="52" y="226" fill="#a8b7c1">}</text><rect x="100" y="213" width="8" height="16" fill="#72ffb3"><animate attributeName="opacity" values="1;0;1" dur=".9s" repeatCount="indefinite"/></rect></g>
<g transform="translate(792 332)"><rect width="358" height="244" rx="22" fill="#090c14" fill-opacity=".70" stroke="#8b5cff" stroke-opacity=".30"/><text x="20" y="32" fill="#b1a1ff" font-size="11">KERNEL / PROCESS TRACE</text><text x="20" y="63" fill="#6f818c" font-size="10">PID    CPU   STATE   UNIT</text><text x="20" y="86" fill="#72ffb3" font-size="11">4172   31%   RUN     fraud-service</text><text x="20" y="108" fill="#55f7ff" font-size="11">4201   12%   SLP     kafka-network</text><text x="20" y="130" fill="#ff66d8" font-size="11">4227   07%   IO      redis-client</text><text x="20" y="152" fill="#c4d1d7" font-size="11">4266   04%   WAIT    grpc-eventloop</text><path d="M20 176H336" stroke="#fff" stroke-opacity=".08"/><text x="20" y="199" fill="#7c929c" font-size="10">tcp  ESTAB  :443 → risk-provider</text><text x="20" y="220" fill="#7c929c" font-size="10">epoll  ownership=explicit  leaks=0</text><rect x="18" y="185" width="320" height="42" rx="8" fill="none" stroke="url(#foil)" opacity=".2" filter="url(#noise)"/></g>
</g></svg>